<svg width="139" height="30" viewBox="0 0 139 30" fill="none" xmlns="http://www.w3.org/2000/svg" class="max-md:mx-auto flex-shrink-0"><g clip-path="url(#clip0_11_21794)"><path d="M14.0681 29.0881C12.1084 29.0881 10.2731 28.7175 8.56539 27.9763C6.85765 27.2351 5.36634 26.2033 4.09443 24.878C2.82252 23.5528 1.82337 22.0111 1.09402 20.2499C0.364674 18.4888 0 16.5884 0 14.5486C0 12.5088 0.364674 10.6083 1.09402 8.84722C1.82337 7.08611 2.82845 5.5444 4.11518 4.21912C5.39895 2.89385 6.89619 1.86209 8.60689 1.11791C10.3146 0.376707 12.1499 0.00610352 14.1096 0.00610352C16.3866 0.00610352 18.4738 0.510124 20.3684 1.5152C22.2629 2.52324 23.858 3.86038 25.1566 5.52958L22.8914 7.16023C21.8834 5.80827 20.6144 4.72907 19.0757 3.92264C17.5399 3.11621 15.8826 2.71003 14.1096 2.71003C12.5738 2.71003 11.13 3.0154 9.778 3.62319C8.42604 4.23395 7.24011 5.07299 6.22317 6.14626C5.20327 7.21953 4.4087 8.47069 3.83945 9.9027C3.2702 11.3347 2.98558 12.8823 2.98558 14.5515C2.98558 16.2207 3.2702 17.7714 3.83945 19.2004C4.4087 20.6294 5.19734 21.8836 6.20242 22.9568C7.2075 24.0301 8.3875 24.8721 9.73946 25.4799C11.0914 26.0907 12.5353 26.3931 14.0711 26.3931C15.6069 26.3931 17.0833 26.1084 18.4205 25.5392C19.7576 24.97 20.9376 24.1813 21.9575 23.1762C22.9774 22.1712 23.772 20.9912 24.3412 19.6392C24.9105 18.2872 25.1951 16.8315 25.1951 15.269H28.0562C28.0295 17.2021 27.6589 19.0106 26.9444 20.6947C26.2298 22.3787 25.2366 23.8492 23.9647 25.1063C22.6928 26.3634 21.2163 27.3448 19.5352 28.0474C17.8512 28.7501 16.0308 29.1 14.0711 29.1M14.9012 16.0547V13.3538H28.0532V15.5388L27.6174 16.0547H14.9012Z" fill="#4A1F0F"></path><path d="M32.3463 0.634521H35.2459V28.4505H32.3463V0.634521ZM34.2141 25.8296H50.3072V28.4535H34.2141V25.8296Z" fill="#4A1F0F"></path><path d="M53.6841 0.634578H56.5837V28.4506H53.6841V0.634578ZM55.0361 18.7556V16.0546H65.5257C66.6375 16.0546 67.6514 15.77 68.5646 15.2008C69.4778 14.6315 70.2012 13.8696 70.7289 12.9149C71.2596 11.9602 71.5235 10.887 71.5235 9.69509C71.5235 8.50323 71.2596 7.42403 70.7289 6.4575C70.1982 5.49097 69.4778 4.72901 68.5646 4.17162C67.6514 3.61423 66.6375 3.33554 65.5257 3.33554H55.0361V0.634578H65.5257C67.2215 0.607895 68.7455 0.999252 70.0945 1.80569C71.4464 2.61508 72.5197 3.70021 73.3143 5.06403C74.1088 6.42785 74.5061 7.97253 74.5061 9.69213C74.5061 11.4117 74.1088 12.9179 73.3143 14.2817C72.5197 15.6455 71.4464 16.7336 70.0945 17.54C68.7425 18.3494 67.2186 18.7526 65.5257 18.7526H55.0361V18.7556Z" fill="#4A1F0F"></path><path d="M96.7987 9.37769V28.4504H93.8991V23.8401L94.2578 24.2759C93.57 25.7346 92.5738 26.8969 91.2782 27.7715C89.9796 28.6461 88.5238 29.0819 86.908 29.0819C85.2922 29.0819 83.8868 28.6906 82.6179 27.9108C81.346 27.1311 80.3379 26.0697 79.5967 24.7325C78.8555 23.3954 78.4849 21.9041 78.4849 20.2616V9.37769H81.3845V20.2645C81.3845 21.4297 81.6632 22.4911 82.2206 23.4428C82.778 24.3975 83.5311 25.1506 84.4857 25.708C85.4404 26.2653 86.484 26.544 87.6255 26.544C88.7669 26.544 89.8847 26.2446 90.8245 25.6487C91.7644 25.0527 92.5145 24.2522 93.0689 23.2442C93.6263 22.2361 93.902 21.1125 93.902 19.8672V9.37769H96.8016H96.7987Z" fill="#4A1F0F"></path><path d="M102.082 28.4504V9.37767H104.982V13.5106L104.584 13.1519C105.142 11.8266 105.91 10.7622 106.888 9.95285C107.866 9.14642 109.008 8.74023 110.306 8.74023C111.338 8.74023 112.305 8.97742 113.206 9.45476C114.107 9.9321 114.881 10.5725 115.53 11.3819C116.18 12.1913 116.636 13.1104 116.9 14.1422L114.356 15.5327C114.119 14.7114 113.772 13.9909 113.325 13.3654C112.874 12.7428 112.331 12.2387 111.697 11.8563C111.062 11.4738 110.345 11.2811 109.55 11.2811C108.622 11.2811 107.816 11.5716 107.125 12.1557C106.437 12.7398 105.907 13.5403 105.536 14.5602C105.165 15.5801 104.979 16.7542 104.979 18.0765V28.4474H102.079L102.082 28.4504Z" fill="#4A1F0F"></path><path d="M128.35 29.0878C126.471 29.0878 124.76 28.6372 123.224 27.7359C121.688 26.8346 120.47 25.6101 119.569 24.0595C118.667 22.5089 118.217 20.7952 118.217 18.9126C118.217 17.0299 118.667 15.2836 119.569 13.7478C120.47 12.212 121.688 10.9935 123.224 10.0922C124.76 9.19089 126.471 8.74023 128.35 8.74023C130.23 8.74023 131.781 9.19089 133.236 10.0922C134.692 10.9935 135.851 12.212 136.714 13.7478C137.574 15.2836 138.007 17.0062 138.007 18.9126C138.007 20.8189 137.577 22.5089 136.714 24.0595C135.854 25.6101 134.692 26.8346 133.236 27.7359C131.778 28.6372 130.15 29.0878 128.35 29.0878ZM128.629 26.5055C130.085 26.5055 131.383 26.1734 132.522 25.5123C133.66 24.8511 134.568 23.9409 135.244 22.7906C135.92 21.6372 136.258 20.3475 136.258 18.9155C136.258 17.4835 135.92 16.1938 135.244 15.0405C134.568 13.8872 133.66 12.9799 132.522 12.3188C131.383 11.6576 130.085 11.3256 128.629 11.3256C127.173 11.3256 125.913 11.6576 124.775 12.3188C123.636 12.9799 122.72 13.8872 122.032 15.0405C121.344 16.1938 121.001 17.4835 121.001 18.9155C121.001 20.3475 121.344 21.6372 122.032 22.7906C122.72 23.9439 123.636 24.8511 124.775 25.5123C125.913 26.1734 127.197 26.5055 128.629 26.5055ZM136.258 9.37767H139V28.4504H136.258V9.37767Z" fill="#4A1F0F"></path></g><defs><clipPath id="clip0_11_21794"><rect width="139" height="29.0879" fill="white"></rect></clipPath></defs></svg>